<svg width="164" height="142" viewBox="0 0 164 142" fill="none" xmlns="http://www.w3.org/2000/svg">
<g id="amazon" clip-path="url(#clip0_1185_651)">
<path id="Vector" fill-rule="evenodd" clip-rule="evenodd" d="M101.325 84.3819C91.855 91.3554 78.1286 95.076 66.3104 95.076C49.7394 95.076 34.8212 88.9529 23.535 78.7692C22.6484 77.9681 23.4429 76.8769 24.5069 77.5006C36.6869 84.5804 51.7469 88.8396 67.3035 88.8396C77.7952 88.8396 89.3367 86.671 99.9489 82.1708C101.552 81.4905 102.893 83.2196 101.325 84.3819Z" fill="#D0D0D0"/>
<path id="Vector_2" fill-rule="evenodd" clip-rule="evenodd" d="M105.262 79.8817C104.056 78.3367 97.2603 79.1517 94.2099 79.5131C93.2807 79.6266 93.1389 78.8186 93.9759 78.2376C99.3884 74.432 108.27 75.5304 109.305 76.806C110.341 78.0887 109.036 86.9827 103.95 91.2277C103.169 91.8798 102.424 91.5325 102.772 90.6678C103.914 87.819 106.475 81.4338 105.262 79.8817Z" fill="#D0D0D0"/>
<path id="Vector_3" fill-rule="evenodd" clip-rule="evenodd" d="M94.4227 51.3713V47.672C94.4227 47.1121 94.8483 46.7365 95.359 46.7365H111.937C112.469 46.7365 112.895 47.1191 112.895 47.672V50.8397C112.888 51.3713 112.441 52.0658 111.646 53.1643L103.056 65.4174C106.248 65.3396 109.617 65.8144 112.512 67.4444C113.164 67.8128 113.342 68.3515 113.391 68.8829V72.8303C113.391 73.3689 112.795 73.9996 112.171 73.6737C107.071 71.002 100.296 70.7114 94.6568 73.702C94.0822 74.0139 93.4792 73.3902 93.4792 72.8517V69.1027C93.4792 68.5003 93.4863 67.4727 94.0892 66.5585L104.042 52.2998H95.3802C94.8483 52.2998 94.4227 51.9242 94.4227 51.3713ZM33.9486 74.4532H28.9048C28.4225 74.4179 28.0395 74.0564 28.004 73.5957V47.7358C28.004 47.2184 28.4366 46.8074 28.9757 46.8074H33.6789C34.1684 46.8285 34.5586 47.2043 34.5941 47.6719V51.0525H34.6863C35.9135 47.7855 38.2189 46.262 41.326 46.262C44.4826 46.262 46.4548 47.7855 47.8736 51.0525C49.0937 47.7855 51.8674 46.262 54.8397 46.262C56.9535 46.262 59.2661 47.1336 60.6777 49.0896C62.2738 51.2652 61.9475 54.4259 61.9475 57.1968L61.9404 73.5179C61.9404 74.0353 61.5077 74.4534 60.9686 74.4534H55.932C55.4285 74.418 55.024 74.0141 55.024 73.5179V59.8118C55.024 58.7204 55.1234 55.9989 54.8822 54.9644C54.5063 53.2281 53.3784 52.739 51.9169 52.739C50.6968 52.739 49.42 53.5541 48.9021 54.8581C48.3843 56.1622 48.434 58.3448 48.434 59.8118V73.5177C48.434 74.0351 48.0012 74.4532 47.4621 74.4532H42.4255C41.9148 74.4179 41.5175 74.0139 41.5175 73.5177L41.5105 59.8118C41.5105 56.9274 41.9857 52.6825 38.4034 52.6825C34.7786 52.6825 34.9203 56.8211 34.9203 59.8118V73.5177C34.9203 74.0351 34.4877 74.4532 33.9486 74.4532ZM127.167 46.2618C134.651 46.2618 138.702 52.6824 138.702 60.8465C138.702 68.7341 134.226 74.9919 127.167 74.9919C119.818 74.9919 115.817 68.5712 115.817 60.57C115.817 52.5194 119.868 46.2618 127.167 46.2618ZM127.21 51.5414C123.493 51.5414 123.259 56.6015 123.259 59.755C123.259 62.9159 123.209 69.6624 127.167 69.6624C131.076 69.6624 131.26 64.2198 131.26 60.9031C131.26 58.7204 131.168 56.1124 130.509 54.0431C129.941 52.243 128.813 51.5414 127.21 51.5414ZM148.406 74.4532H143.384C142.88 74.4179 142.476 74.0139 142.476 73.5177L142.469 47.6507C142.511 47.1759 142.93 46.8074 143.44 46.8074H148.115C148.555 46.8285 148.917 47.1265 149.016 47.5302V51.4848H149.108C150.52 47.9485 152.499 46.2618 155.982 46.2618C158.245 46.2618 160.451 47.0766 161.87 49.309C163.189 51.3783 163.189 54.8581 163.189 57.3598V73.6382C163.133 74.0918 162.714 74.4532 162.218 74.4532H157.16C156.699 74.4179 156.316 74.0776 156.266 73.6382V59.5921C156.266 56.7644 156.592 52.6256 153.109 52.6256C151.882 52.6256 150.754 53.4477 150.194 54.695C149.484 56.2755 149.392 57.8487 149.392 59.5922V73.5177C149.385 74.0351 148.945 74.4532 148.406 74.4532ZM81.207 62.1009C81.207 64.0639 81.2567 65.701 80.2635 67.4442C79.462 68.8618 78.1852 69.7333 76.7734 69.7333C74.8369 69.7333 73.7019 68.2594 73.7019 66.0836C73.7019 61.789 77.5539 61.0094 81.207 61.0094V62.1009ZM86.2932 74.3824C85.9599 74.68 85.4775 74.7013 85.1016 74.5028C83.4274 73.1138 83.1224 72.4689 82.2073 71.1437C79.4407 73.9643 77.4758 74.8076 73.8933 74.8076C69.6442 74.8076 66.3456 72.1925 66.3456 66.9555C66.3456 62.8663 68.5589 60.0811 71.7227 58.7204C74.461 57.5156 78.2844 57.303 81.2072 56.9699V56.318C81.2072 55.1202 81.2993 53.7029 80.5899 52.6682C79.9799 51.7399 78.8022 51.3571 77.7595 51.3571C75.837 51.3571 74.1275 52.3421 73.709 54.3832C73.6238 54.8368 73.2904 55.2832 72.8294 55.3045L67.9417 54.7801C67.5304 54.688 67.0692 54.3549 67.1898 53.7242C68.3107 47.7997 73.6735 46.0137 78.4691 46.0137C80.9235 46.0137 84.1298 46.6657 86.0665 48.5225C88.5207 50.8116 88.2867 53.8658 88.2867 57.1897V65.0418C88.2867 67.4019 89.2658 68.4363 90.1879 69.7121C90.5073 70.1657 90.578 70.7114 90.1667 71.0515C89.138 71.909 87.3078 73.5035 86.3005 74.3965L86.2935 74.3824M15.0863 62.1009C15.0863 64.0639 15.136 65.701 14.1427 67.4442C13.3412 68.8618 12.0714 69.7333 10.6526 69.7333C8.71613 69.7333 7.58808 68.2594 7.58808 66.0836C7.58808 61.789 11.4401 61.0094 15.0863 61.0094V62.1009ZM20.1724 74.3824C19.8391 74.68 19.3567 74.7013 18.9808 74.5028C17.3066 73.1138 17.0086 72.4689 16.0865 71.1437C13.3199 73.9643 11.3622 74.8076 7.77256 74.8076C3.53059 74.8076 0.224854 72.1925 0.224854 66.9555C0.224854 62.8663 2.44525 60.0811 5.60187 58.7204C8.34017 57.5156 12.1636 57.303 15.0863 56.9699V56.318C15.0863 55.1202 15.1785 53.7029 14.4761 52.6682C13.859 51.7399 12.6815 51.3571 11.6457 51.3571C9.72341 51.3571 8.00674 52.3421 7.58808 54.3832C7.50302 54.8368 7.16959 55.2832 6.71557 55.3045L1.82093 54.7801C1.40944 54.688 0.955587 54.3549 1.06901 53.7242C2.19689 47.7997 7.55272 46.0137 12.3481 46.0137C14.8024 46.0137 18.0089 46.6657 19.9455 48.5225C22.3998 50.8116 22.1658 53.8658 22.1658 57.1897V65.0418C22.1658 67.4019 23.1447 68.4363 24.0669 69.7121C24.3933 70.1657 24.4642 70.7114 24.0527 71.0515C23.0241 71.909 21.194 73.5035 20.1867 74.3965L20.1724 74.3824Z" fill="#D0D0D0"/>
</g>
<defs>
<clipPath id="clip0_1185_651">
<rect width="163" height="141" fill="white" transform="translate(0.25 0.0449219)"/>
</clipPath>
</defs>
</svg>
