<svg width="213" height="165" viewBox="0 0 213 165" fill="none" xmlns="http://www.w3.org/2000/svg">
<g id="linkedin" clip-path="url(#clip0_1185_661)">
<g id="Group 21">
<path id="Vector" d="M209.87 115.232C210.001 115.233 210.131 115.207 210.251 115.157C210.371 115.106 210.48 115.031 210.57 114.936C210.661 114.842 210.73 114.73 210.776 114.607C210.821 114.484 210.84 114.354 210.833 114.223C210.833 113.508 210.401 113.167 209.515 113.167H208.083V116.91H208.622V115.278H209.283L209.298 115.298L210.325 116.91H210.901L209.796 115.242L209.87 115.232ZM209.248 114.857H208.623V113.591H209.415C209.823 113.591 210.289 113.658 210.289 114.192C210.289 114.807 209.818 114.857 209.244 114.857M0.121582 74.296H8.06875V103.217H22.7813V110.544H0.121582V74.296ZM26.2948 85.9668H33.9295V110.53H26.2948V85.9668ZM30.1121 73.7549C30.9881 73.755 31.8443 74.0147 32.5725 74.501C33.3007 74.9873 33.8682 75.6784 34.2033 76.4869C34.5384 77.2954 34.626 78.1851 34.455 79.0433C34.2841 79.9016 33.8622 80.6899 33.2428 81.3086C32.6233 81.9274 31.8342 82.3487 30.9751 82.5194C30.116 82.69 29.2255 82.6024 28.4163 82.2674C27.6071 81.9325 26.9154 81.3654 26.4288 80.6378C25.9422 79.9101 25.6825 79.0547 25.6825 78.1796C25.6825 77.5985 25.7971 77.023 26.0197 76.4862C26.2423 75.9493 26.5686 75.4615 26.9799 75.0506C27.3913 74.6397 27.8796 74.3138 28.417 74.0915C28.9545 73.8692 29.5305 73.7548 30.1121 73.7549ZM65.8661 74.2904H73.5007V95.9532L82.1533 85.9556H91.5136L81.4932 97.3277L91.3029 110.541H81.7071L73.6025 98.3987H73.5023V110.539H65.8676L65.8661 74.2904ZM38.1627 85.9691H45.4943V89.326H45.5985C46.3308 88.0726 47.3901 87.0414 48.6634 86.3425C49.9366 85.6437 51.3759 85.3035 52.8275 85.3582C60.5695 85.3582 61.9947 90.4471 61.9947 97.0584V110.529H54.36V98.5862C54.36 95.7355 54.3075 92.0711 50.3837 92.0711C46.4153 92.0711 45.8029 95.1753 45.8029 98.3789V110.526H38.1683L38.1627 85.9691Z" fill="#D0D0D0"/>
<path id="Vector_2" d="M107.592 95.3912C107.606 94.7724 107.495 94.157 107.265 93.5824C107.034 93.0079 106.69 92.486 106.251 92.0484C105.813 91.6109 105.29 91.2668 104.715 91.037C104.14 90.8072 103.524 90.6964 102.905 90.7114C101.571 90.6285 100.257 91.0726 99.2482 91.948C98.2389 92.8234 97.6145 94.06 97.5094 95.3912H107.592ZM114.059 106.276C112.79 107.813 111.195 109.049 109.39 109.894C107.584 110.74 105.613 111.173 103.619 111.163C95.9841 111.163 89.8716 106.072 89.8716 98.1879C89.8716 90.3038 95.9833 85.2149 103.619 85.2149C110.755 85.2149 115.23 90.2998 115.23 98.1879V100.579H97.5094C97.73 101.936 98.4338 103.167 99.4912 104.046C100.549 104.924 101.888 105.392 103.263 105.362C104.35 105.355 105.418 105.077 106.369 104.553C107.321 104.028 108.126 103.275 108.712 102.36L114.059 106.276ZM131.143 91.904C127.326 91.904 125.035 94.4504 125.035 98.1609C125.035 101.871 127.325 104.42 131.143 104.42C134.961 104.42 137.256 101.878 137.256 98.1609C137.256 94.4441 134.965 91.904 131.143 91.904ZM144.285 110.525H137.256V107.268H137.152C136.27 108.453 135.127 109.418 133.81 110.089C132.494 110.76 131.04 111.118 129.562 111.136C122.226 111.136 117.394 105.846 117.394 98.3667C117.394 91.4972 121.671 85.1894 128.7 85.1894C131.86 85.1894 134.811 86.0531 136.542 88.447H136.642V74.2877H144.284L144.285 110.525ZM195.826 110.54H188.191V98.5947C188.191 95.7463 188.14 92.0796 184.22 92.0796C180.244 92.0796 179.636 95.183 179.636 98.3873V110.539H172.001V85.9752H179.33V89.3321H179.433C180.166 88.0792 181.226 87.0484 182.5 86.3497C183.773 85.651 185.212 85.3104 186.664 85.3642C194.402 85.3642 195.829 90.4492 195.829 97.0644L195.826 110.54ZM163.387 82.6176C162.51 82.6177 161.654 82.3583 160.925 81.872C160.196 81.3858 159.628 80.6946 159.293 79.8859C158.957 79.0771 158.87 78.1871 159.04 77.3285C159.211 76.4698 159.633 75.6811 160.252 75.0619C160.872 74.4428 161.661 74.0211 162.521 73.8501C163.38 73.6792 164.271 73.7667 165.081 74.1016C165.89 74.4364 166.582 75.0036 167.069 75.7315C167.556 76.4593 167.816 77.315 167.816 78.1905C167.816 78.7717 167.702 79.3473 167.479 79.8844C167.257 80.4215 166.931 80.9095 166.519 81.3206C166.108 81.7317 165.62 82.0578 165.082 82.2803C164.545 82.5029 163.968 82.6175 163.387 82.6176ZM167.204 110.54H159.561V85.9752H167.204V110.54ZM199.632 66.6817H155.725C154.728 66.6705 153.768 67.055 153.055 67.7507C152.342 68.4465 151.935 69.3965 151.923 70.3922V114.44C151.935 115.436 152.342 116.387 153.055 117.083C153.767 117.78 154.728 118.165 155.725 118.154H199.632C200.631 118.167 201.594 117.783 202.31 117.086C203.026 116.39 203.436 115.438 203.449 114.44V70.389C203.435 69.3914 203.025 68.4403 202.309 67.7445C201.594 67.0488 200.631 66.6654 199.632 66.6786M209.313 111.499C208.384 111.508 207.497 111.884 206.844 112.545C206.192 113.205 205.829 114.098 205.833 115.026C205.838 115.954 206.21 116.842 206.868 117.497C207.527 118.151 208.418 118.519 209.347 118.519C210.276 118.519 211.167 118.151 211.825 117.497C212.484 116.842 212.856 115.954 212.86 115.026C212.865 114.098 212.501 113.205 211.849 112.545C211.197 111.884 210.309 111.508 209.381 111.499H209.313ZM209.313 118.117C208.704 118.127 208.105 117.957 207.593 117.627C207.081 117.297 206.678 116.823 206.435 116.265C206.193 115.706 206.121 115.088 206.23 114.489C206.339 113.89 206.624 113.337 207.047 112.9C207.471 112.462 208.015 112.16 208.61 112.031C209.206 111.902 209.826 111.953 210.393 112.177C210.96 112.4 211.448 112.787 211.794 113.287C212.141 113.787 212.332 114.379 212.342 114.988V115.04C212.359 115.838 212.058 116.611 211.505 117.188C210.952 117.764 210.192 118.098 209.393 118.115H209.314" fill="#D0D0D0"/>
</g>
</g>
<defs>
<clipPath id="clip0_1185_661">
<rect width="212" height="185" fill="white" transform="translate(0.25 0.0449219)"/>
</clipPath>
</defs>
</svg>
