<svg width="206" height="41" viewBox="0 0 206 41" fill="none" xmlns="http://www.w3.org/2000/svg">
<path id="Vector" d="M22.2204 26.1604L20.5289 30.9362H20.388C20.1061 29.8593 19.5892 28.2205 18.7435 26.254L9.67548 3.54566H0.79541V39.7386H6.66848V17.4048C6.66848 16.0002 6.66847 14.4082 6.62149 12.4417C6.5745 11.4585 6.48054 10.7093 6.43355 10.1475H6.5745C6.85641 11.5521 7.1853 12.5822 7.42022 13.2377L18.3206 39.645H22.4553L33.2617 13.0036C33.4966 12.3949 33.7316 11.1776 33.9665 10.1475H34.1074C33.9665 12.8163 33.8725 15.2042 33.8255 16.6557V39.5981H40.0745V3.45202H31.5233L22.2204 26.1604ZM45.9945 13.6591H52.1025V39.5981H45.9945V13.6591ZM49.0955 2.70288C48.0618 2.70288 47.2161 3.07745 46.5114 3.73295C45.8066 4.38845 45.4307 5.23123 45.4307 6.2613C45.4307 7.24455 45.8066 8.08734 46.5114 8.74284C47.2161 9.39834 48.0618 9.72609 49.0955 9.72609C50.1292 9.72609 51.0219 9.35152 51.6796 8.74284C52.3844 8.08734 52.7603 7.24455 52.7603 6.2613C52.7603 5.27806 52.3844 4.43527 51.6796 3.73295C51.0689 3.07745 50.1761 2.70288 49.0955 2.70288ZM73.7624 13.425C72.6348 13.1909 71.4601 13.0504 70.3325 13.0504C67.5604 13.0504 65.0233 13.6591 62.909 14.8764C60.7946 16.0938 59.1032 17.7794 58.0226 19.8863C56.8949 22.0401 56.3311 24.5216 56.3311 27.3778C56.3311 29.8593 56.8949 32.0599 57.9756 34.0732C59.0562 36.0397 60.5597 37.6316 62.5801 38.7085C64.5064 39.7854 66.7617 40.3473 69.2989 40.3473C72.2119 40.3473 74.7021 39.7386 76.6754 38.6149L76.7224 38.5681V32.9495L76.4875 33.1368C75.5948 33.7923 74.5611 34.3541 73.5275 34.6819C72.4468 35.0565 71.4601 35.2437 70.6144 35.2437C68.1712 35.2437 66.2449 34.5414 64.8823 32.9963C63.4728 31.498 62.768 29.4379 62.768 26.8627C62.768 24.1939 63.4728 22.0869 64.9293 20.5418C66.3858 18.9967 68.3122 18.2008 70.6614 18.2008C72.6348 18.2008 74.6551 18.8563 76.4875 20.1673L76.7224 20.3545V14.4082L76.6754 14.3614C75.8767 14.0337 74.984 13.6591 73.7624 13.425ZM93.9187 13.2377C92.4152 13.2377 91.0057 13.7059 89.7841 14.6892C88.7505 15.5319 88.0457 16.7493 87.4349 18.2008H87.3879V13.6591H81.2799V39.5981H87.3879V26.3477C87.3879 24.1003 87.8577 22.2274 88.8914 20.8696C89.9251 19.4649 91.2406 18.7626 92.8381 18.7626C93.4019 18.7626 93.9657 18.9031 94.6705 18.9967C95.3283 19.184 95.7981 19.3713 96.127 19.6054L96.3619 19.7927V13.7059L96.221 13.6591C95.7981 13.3782 94.9524 13.2377 93.9187 13.2377ZM110.551 13.0972C106.276 13.0972 102.846 14.3614 100.45 16.8429C98.0064 19.3245 96.8318 22.7424 96.8318 27.05C96.8318 31.0766 98.0534 34.3541 100.403 36.742C102.752 39.0831 105.947 40.3005 109.94 40.3005C114.122 40.3005 117.458 39.0363 119.854 36.5079C122.297 33.9796 123.472 30.6084 123.472 26.4413C123.472 22.321 122.344 19.0435 120.042 16.6557C117.834 14.2678 114.592 13.0972 110.551 13.0972ZM115.438 33.0431C114.31 34.4946 112.525 35.1969 110.316 35.1969C108.108 35.1969 106.323 34.4946 105.054 32.9495C103.785 31.498 103.175 29.3911 103.175 26.7223C103.175 23.9598 103.832 21.8528 105.054 20.3545C106.323 18.8563 108.061 18.1071 110.269 18.1071C112.431 18.1071 114.122 18.8094 115.344 20.2609C116.565 21.7124 117.223 23.8193 117.223 26.5818C117.129 29.3911 116.612 31.5917 115.438 33.0431ZM137.098 24.428C135.171 23.632 133.95 23.0234 133.386 22.5083C132.916 22.0401 132.681 21.3846 132.681 20.5418C132.681 19.8395 132.963 19.1372 133.668 18.669C134.372 18.2008 135.171 17.9667 136.346 17.9667C137.379 17.9667 138.46 18.1539 139.494 18.4349C140.527 18.7158 141.467 19.1372 142.219 19.699L142.454 19.8863V14.1741L142.313 14.1273C141.608 13.8464 140.668 13.5654 139.541 13.3313C138.413 13.144 137.379 13.0504 136.534 13.0504C133.621 13.0504 131.224 13.7527 129.345 15.2978C127.466 16.7493 126.573 18.7158 126.573 21.01C126.573 22.2274 126.761 23.3043 127.184 24.1939C127.607 25.0835 128.217 25.9263 129.063 26.6286C129.909 27.2841 131.13 28.0333 132.822 28.7356C134.231 29.3442 135.312 29.8125 135.97 30.187C136.628 30.5616 137.051 30.983 137.379 31.3107C137.614 31.6853 137.755 32.1535 137.755 32.7622C137.755 34.4946 136.44 35.3374 133.762 35.3374C132.728 35.3374 131.647 35.1501 130.379 34.7287C129.11 34.3073 127.936 33.6986 126.949 32.9963L126.714 32.809V38.7553L126.855 38.8022C127.748 39.2236 128.828 39.5045 130.144 39.8322C131.459 40.0663 132.634 40.2536 133.668 40.2536C136.816 40.2536 139.4 39.5513 141.232 38.0062C143.112 36.5079 144.098 34.5882 144.098 32.1067C144.098 30.3743 143.628 28.8292 142.595 27.6587C141.232 26.535 139.541 25.3644 137.098 24.428ZM160.214 13.0972C155.938 13.0972 152.508 14.3614 150.112 16.8429C147.716 19.3245 146.494 22.7424 146.494 27.05C146.494 31.0766 147.716 34.3541 150.065 36.742C152.414 39.0831 155.609 40.3005 159.603 40.3005C163.785 40.3005 167.121 39.0363 169.517 36.5079C171.96 33.9796 173.135 30.6084 173.135 26.4413C173.135 22.321 172.007 19.0435 169.705 16.6557C167.497 14.2678 164.255 13.0972 160.214 13.0972ZM165.053 33.0431C163.926 34.4946 162.14 35.1969 159.932 35.1969C157.677 35.1969 155.938 34.4946 154.67 32.9495C153.401 31.498 152.79 29.3911 152.79 26.7223C152.79 23.9598 153.448 21.8528 154.67 20.3545C155.938 18.8563 157.677 18.1071 159.885 18.1071C161.999 18.1071 163.738 18.8094 164.959 20.2609C166.181 21.7124 166.839 23.8193 166.839 26.5818C166.839 29.3911 166.228 31.5917 165.053 33.0431ZM205.789 18.669V13.6591H199.634V5.98038L199.446 6.0272L193.62 7.75959L193.479 7.80641V13.6591H184.27V10.3816C184.27 8.8833 184.646 7.71277 185.304 6.96363C185.961 6.21448 186.948 5.83991 188.17 5.83991C189.015 5.83991 189.908 6.0272 190.895 6.44859L191.13 6.58905V1.29824L190.989 1.25142C190.143 0.970489 189.015 0.783203 187.559 0.783203C185.727 0.783203 184.129 1.2046 182.673 1.90692C181.216 2.70288 180.135 3.77977 179.337 5.23123C178.538 6.63588 178.115 8.2278 178.115 10.0538V13.6591H173.839V18.6222H178.115V39.5981H184.27V18.669H193.479V32.0131C193.479 37.4912 196.063 40.2536 201.231 40.2536C202.077 40.2536 202.97 40.1132 203.816 39.9727C204.708 39.7854 205.366 39.5513 205.742 39.364L205.789 39.3172V34.3073L205.554 34.4946C205.178 34.7287 204.849 34.916 204.285 35.0565C203.816 35.1969 203.393 35.2437 203.064 35.2437C201.842 35.2437 200.997 34.9628 200.386 34.2605C199.822 33.605 199.54 32.5281 199.54 30.9362V18.669H205.789Z" fill="#D0D0D0"/>
</svg>
