<svg width="171" height="47" viewBox="0 0 171 47" fill="none" xmlns="http://www.w3.org/2000/svg">
<path d="M23.4865 43.7197C20.9171 44.1735 18.3024 44.3095 15.5977 44.6719L7.34789 20.372V45.7148C4.77844 45.9867 2.43434 46.3494 0 46.7121V0.288086H6.85231L16.2287 26.6286V0.288086H23.4865V43.7197ZM37.6867 17.2891C40.4819 17.2891 44.7644 17.153 47.3338 17.153V24.4066C44.133 24.4066 40.3916 24.4066 37.6867 24.5427V35.3328C41.9244 35.0609 46.1619 34.6978 50.4442 34.5618V41.5431L30.4738 43.1302V0.288086H50.4442V7.54184H37.6867V17.2891ZM77.2667 7.54201H69.7835V40.9092C67.3492 40.9092 64.9148 40.9092 62.571 40.9996V7.54201H55.0879V0.288086H77.267L77.2667 7.54201ZM88.9873 16.7905H98.8599V24.0441H88.9873V40.5012H81.9093V0.288086H102.061V7.54184H88.9873V16.7905ZM113.781 34.154C117.884 34.2444 122.031 34.5623 126.043 34.7886V41.9518C119.597 41.5435 113.15 41.136 106.569 40.9996V0.288086H113.781V34.154ZM132.129 42.4505C134.428 42.5867 136.862 42.7228 139.206 42.9943V0.288086H132.129V42.4505ZM170.807 0.288086L161.656 22.3667L170.807 46.7121C168.102 46.3494 165.398 45.8507 162.693 45.3972L157.509 31.9781L152.235 44.3095C149.62 43.8558 147.095 43.7197 144.481 43.357L153.768 22.0945L145.382 0.288086H153.136L157.869 12.4835L162.918 0.288086H170.807Z" fill="#D0D0D0"/>
</svg>
