<svg width="169" height="140" viewBox="0 0 169 140" fill="none" xmlns="http://www.w3.org/2000/svg">
<g id="riot">
<path id="Vector" d="M34.051 90.1987L31.7439 84.2546L54.0418 85.4011L53.0406 94.9144L34.051 90.1987ZM39.3938 44.1533L8.19043 58.8934L13.0162 81.105H19.381L18.2818 65.2163L19.2583 64.9137L23.0854 81.105H29.6977L29.453 61.751L30.4298 61.4481L33.7745 81.105H40.7755L42.427 57.7272L43.4031 57.4239L45.1358 81.105H54.3934L57.652 48.5958L39.3938 44.1533ZM135.759 92.5075L135.694 90.6543L142.1 90.5788L142.159 88.5592L135.618 88.478L135.553 86.6019L144.17 86.3998L144.241 84.1844H132.616L132.269 94.9363H144.456L144.37 92.7163L135.759 92.5075ZM77.7931 88.5542L77.6563 90.5661L80.8895 90.6741L80.8485 92.7163L74.0814 92.5178L74.3762 86.6195L83.6807 86.4044L83.5464 84.1844H71.5277L70.45 94.9363H84.1438L83.789 88.4502L77.7931 88.5542ZM162.615 89.3865L153.733 87.8849L153.771 86.7211L162.268 86.4041L162.054 84.1844H151.132L150.573 89.7571L159.602 91.3272L159.643 92.3513L150.248 92.7163L150.018 94.9363H163.167L162.615 89.3865ZM126.372 94.9363L125.295 84.1844H122.2L117.755 89.3096L113.31 84.1844H110.216L109.139 94.9363H112.773L113.121 87.961L117.755 92.7163L122.389 87.961L122.738 94.9363H126.372ZM111.097 44.8103H103.822L103.16 78.0608H111.949L111.097 44.8103ZM133.637 70.8285L125.611 71.0873L125.344 51.5324L133.74 51.7863L133.637 70.8285ZM140.672 44.8251H117.992L117.109 78.0608H142.283L140.672 44.8251ZM167.794 52.0871L166.984 44.8103H144.638L144.827 51.2922L151.974 51.5398L152.706 78.0612H161.513L158.879 51.7785L167.794 52.0871ZM81.4033 51.6124L88.4134 51.3779L89.2122 58.0026L81.1211 61.8244L81.4033 51.6124ZM89.5931 78.0608H99.1396L92.918 63.1377L97.8831 60.425L94.4908 44.8103H70.1206L69.3187 52.0162L74.7701 51.8342L72.1414 78.0608H80.6733L80.9039 69.7007L87.0515 66.3423L89.5931 78.0608ZM94.2362 90.0904L94.9754 86.5726L98.5245 86.4122L99.2662 89.9423L94.2362 90.0904ZM100.316 94.9363H103.996L101.085 84.1837H92.4489L89.5374 94.9363H93.2177L93.7876 92.2236L99.762 92.3009L100.316 94.9363Z" fill="#D0D0D0"/>
</g>
</svg>
