<svg width="116" height="100" viewBox="0 0 116 100" fill="none" xmlns="http://www.w3.org/2000/svg">
<g id="visa" clip-path="url(#clip0_1185_665)">
<g id="Clip path group">
<mask id="mask0_1185_665" style="mask-type:luminance" maskUnits="userSpaceOnUse" x="0" y="31" width="115" height="38">
<g id="a">
<path id="Vector" d="M59.6546 42.8765C59.5892 48.0278 64.2454 50.9026 67.7529 52.6117C71.3568 54.3655 72.5672 55.4899 72.5535 57.058C72.526 59.4583 69.6786 60.5175 67.0136 60.5587C62.3643 60.6309 59.6614 59.3036 57.5122 58.2994L55.8375 66.1365C57.9936 67.1303 61.9861 67.9968 66.1264 68.0347C75.8444 68.0347 82.2027 63.2375 82.2371 55.7994C82.2749 46.36 69.18 45.8373 69.2694 41.6179C69.3004 40.3386 70.5212 38.9734 73.1965 38.6261C74.5205 38.4507 78.1759 38.3166 82.3197 40.2251L83.9462 32.6426C81.7179 31.8311 78.8534 31.0539 75.2873 31.0539C66.1401 31.0539 59.7062 35.9163 59.6546 42.8765ZM99.5755 31.7073C97.8011 31.7073 96.3052 32.7423 95.6381 34.3311L81.7557 67.4776H91.4668L93.3995 62.1371H105.267L106.388 67.4776H114.947L107.478 31.7073H99.5755ZM100.934 41.3703L103.736 54.8022H96.0611L100.934 41.3703ZM47.8801 31.7073L40.2254 67.4776H49.4792L57.1305 31.7073H47.8801ZM34.1903 31.7073L24.5582 56.0539L20.6621 35.3524C20.2047 33.0415 18.3994 31.7073 16.3946 31.7073H0.648324L0.428223 32.7458C3.66069 33.4473 7.33332 34.5787 9.55822 35.7891C10.92 36.5285 11.3086 37.1749 11.7556 38.9322L19.1353 67.4776H28.9152L43.9083 31.7073H34.1903Z" fill="white"/>
</g>
</mask>
<g mask="url(#mask0_1185_665)">
<g id="Group">
<path id="Vector_2" d="M-11.564 35.4704L101.271 -6.08398L126.94 63.6192L14.1066 105.174" fill="#D0D0D0"/>
</g>
</g>
</g>
</g>
<defs>
<clipPath id="clip0_1185_665">
<rect width="115" height="99" fill="white" transform="translate(0.25 0.0449219)"/>
</clipPath>
</defs>
</svg>
