<svg width="40" height="38" viewBox="0 0 40 38" fill="none" xmlns="http://www.w3.org/2000/svg">
<g id="Group 1739" filter="url(#filter0_b_787_4573)">
<path id="Vector" d="M26.8005 30.6827C26.9171 30.2997 27.0004 29.8944 27.1669 29.5335C27.8775 27.9568 29.0989 26.9131 30.8144 26.691C32.2912 26.4967 33.8235 26.4523 35.3058 26.58C38.0873 26.8187 39.6973 28.4121 39.9138 31.2546C40.0859 33.4808 39.9471 35.7238 39.9471 38H0.107524C0.107524 38 0.0353504 37.9445 0.0353504 37.9112C0.0297986 35.6238 -0.0479264 33.3309 0.0464539 31.0492C0.140834 28.8395 1.88965 26.9353 4.14367 26.691C5.8092 26.5078 7.5136 26.5244 9.18469 26.6632C11.0556 26.8187 12.599 28.3343 13.0432 30.1331C13.082 30.2997 13.1265 30.4662 13.1709 30.6328C13.2264 30.6328 13.2875 30.6272 13.343 30.6217C13.343 30.1331 13.343 29.6501 13.343 29.1615C13.343 27.7458 13.3319 26.3246 13.343 24.9089C13.3707 22.3939 15.1195 20.362 17.6512 20.0733C19.0447 19.9123 20.4715 19.8734 21.8705 19.9733C24.8296 20.1899 26.6117 22.1774 26.6561 25.1698C26.6839 26.9964 26.6561 28.8284 26.6561 30.655C26.7061 30.6661 26.7505 30.6716 26.8005 30.6827Z" fill="white"/>
<path id="Vector_2" d="M14.9973 11.6233C14.9973 9.00286 17.3013 6.74884 19.9828 6.74329C22.7032 6.74329 24.9905 8.99176 24.985 11.6677C24.985 14.4103 22.7143 16.631 19.944 16.6199C17.2791 16.6088 14.9973 14.2993 14.9973 11.6178V11.6233Z" fill="white"/>
<path id="Vector_3" d="M11.6661 18.2577C11.6661 21.0003 9.40101 23.221 6.62511 23.2099C3.96026 23.1988 1.67293 20.8893 1.67848 18.2133C1.67848 15.5651 4.00467 13.3222 6.7306 13.3333C9.40101 13.3444 11.6717 15.6151 11.6661 18.2577Z" fill="white"/>
<path id="Vector_4" d="M28.3215 18.2244C28.3215 15.5707 30.6366 13.3222 33.3625 13.3333C36.033 13.3444 38.3147 15.604 38.3092 18.2466C38.3092 20.9948 36.0496 23.221 33.2793 23.2155C30.6089 23.2099 28.3215 20.9004 28.3215 18.23V18.2244Z" fill="white"/>
<path id="Vector_5" d="M18.3343 1.79666C18.3454 0.919476 19.0838 0.175537 19.961 0.175537C20.8659 0.175537 21.6876 1.00275 21.6487 1.90214C21.6154 2.73491 20.877 3.43443 20.0109 3.43999C19.1004 3.44554 18.3176 2.68494 18.3287 1.80221L18.3343 1.79666Z" fill="white"/>
<path id="Vector_6" d="M14.9474 4.70571C14.1369 4.71126 13.3818 3.98398 13.3818 3.19563C13.3818 2.28513 14.148 1.52454 15.0529 1.53564C15.8635 1.54675 16.6407 2.32955 16.6463 3.13456C16.6518 3.92846 15.8246 4.69461 14.9474 4.70571Z" fill="white"/>
<path id="Vector_7" d="M24.924 4.7057C24.1301 4.7057 23.3973 4.01173 23.3806 3.24003C23.3584 2.34065 24.119 1.54674 25.0184 1.53564C25.8234 1.52453 26.6228 2.31844 26.6228 3.129C26.6228 3.95066 25.8123 4.70015 24.924 4.7057Z" fill="white"/>
<path id="Vector_8" d="M28.6437 5.18884C29.5153 5.18884 30.2426 5.89392 30.2482 6.74889C30.2482 7.59832 29.532 8.29784 28.6437 8.30339C27.7998 8.30339 27.067 7.55945 27.0725 6.71003C27.0836 5.89947 27.8109 5.19439 28.6437 5.19439V5.18884Z" fill="white"/>
<path id="Vector_9" d="M12.9321 6.81552C12.921 7.63718 12.2215 8.29784 11.3554 8.30894C10.5004 8.3145 9.75091 7.58721 9.74536 6.74889C9.74536 5.88837 10.4615 5.18884 11.3443 5.18884C12.2603 5.18884 12.9432 5.88837 12.9321 6.81552Z" fill="white"/>
</g>
<defs>
<filter id="filter0_b_787_4573" x="-40" y="-39.8245" width="120" height="117.824" filterUnits="userSpaceOnUse" color-interpolation-filters="sRGB">
<feFlood flood-opacity="0" result="BackgroundImageFix"/>
<feGaussianBlur in="BackgroundImageFix" stdDeviation="20"/>
<feComposite in2="SourceAlpha" operator="in" result="effect1_backgroundBlur_787_4573"/>
<feBlend mode="normal" in="SourceGraphic" in2="effect1_backgroundBlur_787_4573" result="shape"/>
</filter>
</defs>
</svg>
