<svg width="40" height="40" viewBox="0 0 40 40" fill="none" xmlns="http://www.w3.org/2000/svg">
<rect width="40" height="40" fill="#4F4F4F"/>
<g clip-path="url(#clip0_734_4202)">
<rect width="1728" height="8732" transform="translate(-304 -5486)" fill="white"/>
<rect x="1453" y="635" width="1785" height="1155" transform="rotate(-180 1453 635)" fill="url(#paint0_linear_734_4202)"/>
<g filter="url(#filter0_b_734_4202)">
<rect x="-30" y="-46" width="380" height="431" rx="20" fill="white" fill-opacity="0.1"/>
<g filter="url(#filter1_b_734_4202)">
<path d="M32.2866 13.8172C31.9627 14.1617 31.6593 14.4959 31.3405 14.8198C30.1476 16.023 28.9495 17.2262 27.7463 18.4294C24.9131 21.2677 22.0747 24.1009 19.2415 26.9392C16.8968 29.2839 14.5572 31.6286 12.2125 33.9732C11.9091 34.2766 11.6006 34.5697 11.2972 34.8731C11.1995 34.9708 11.1121 34.981 11.035 34.8679C10.9424 34.724 10.855 34.58 10.7728 34.4309C10.5774 34.0864 10.3922 33.7367 10.1969 33.3922C10.094 33.2122 9.93462 33.0786 9.73922 33.0117C9.1479 32.8009 8.55143 32.5849 7.95497 32.3844C7.78529 32.3279 7.68245 32.225 7.62074 32.0656C7.56418 31.9165 7.51276 31.7622 7.46134 31.6131C7.31737 31.1812 7.17854 30.7493 7.02942 30.3225C6.94715 30.0911 6.78775 29.9266 6.57179 29.8083C6.12444 29.5615 5.68223 29.3044 5.23488 29.0473C5.20403 29.0268 5.17318 29.0011 5.14233 28.9805C4.96236 28.8365 4.9675 28.8417 5.1269 28.6874C5.52283 28.3069 5.91362 27.9161 6.30441 27.5254C12.7678 21.0621 19.2312 14.5987 25.6947 8.13544C25.8078 8.02232 25.926 7.9092 26.034 7.79608C26.1112 7.71381 26.178 7.71381 26.2603 7.79608C26.5894 8.12516 26.9287 8.44395 27.2578 8.77303C28.8672 10.3824 30.4715 11.9918 32.0809 13.6064C32.1529 13.6784 32.2146 13.7555 32.2815 13.8326L32.2866 13.8172Z" fill="white"/>
<path d="M32.2813 29.8799C31.7208 29.2886 31.1706 28.7127 30.6204 28.1317C30.533 28.0391 30.4456 27.9414 30.353 27.854C30.2502 27.7512 30.2451 27.6689 30.3582 27.5661C30.713 27.2319 31.0575 26.8874 31.4071 26.548C31.6231 26.3372 31.8339 26.1264 32.0396 25.9104C32.2093 25.7356 32.2041 25.6944 32.0293 25.5248C31.6437 25.1391 31.2632 24.7432 30.8724 24.3627C30.7335 24.2239 30.5793 24.1056 30.461 24.0028C29.7412 24.7124 29.0521 25.3808 28.3734 26.0647C28.0546 26.3886 27.7564 26.7331 27.4479 27.0673C27.273 27.2524 27.2422 27.2524 27.0622 27.0673C26.5789 26.5891 26.0955 26.1109 25.6173 25.6276C25.2985 25.3037 25.3088 25.3037 25.6173 24.99C26.9594 23.6583 28.2963 22.3214 29.6332 20.9845C29.8646 20.7531 30.0857 20.5115 30.3068 20.2749C30.3376 20.2441 30.3633 20.2081 30.3942 20.1824C30.6204 19.9716 30.7027 19.9664 30.9187 20.1824C32.0807 21.3239 33.2428 22.4602 34.3946 23.6171C36.004 25.2317 37.6083 26.8565 39.2023 28.4865C39.4234 28.7127 39.6137 28.9801 39.7834 29.2475C40.1073 29.7514 40.061 30.2656 39.6908 30.7078C39.2692 31.2168 38.8064 31.7001 38.3385 32.168C36.1994 34.3173 34.0552 36.4615 31.9111 38.6005C31.5614 38.9501 31.2015 39.2998 30.821 39.6237C30.4559 39.9374 30.024 40.0865 29.5509 39.9477C29.2989 39.8705 29.0367 39.7368 28.8413 39.562C28.2757 39.0633 27.7255 38.5439 27.1908 38.0143C26.2395 37.0785 25.2985 36.1324 24.3575 35.1863C22.9075 33.7363 21.4626 32.2812 20.0126 30.8312C19.9355 30.754 19.9355 30.7026 20.0075 30.6306C20.2748 30.3478 20.5371 30.0599 20.8096 29.7822C21.149 29.4377 21.5038 29.0984 21.8483 28.7538C22.018 28.5842 22.018 28.579 22.1825 28.7436C23.0669 29.6228 23.9565 30.5021 24.8357 31.3813C26.2549 32.7953 27.669 34.2094 29.0881 35.6234C29.2835 35.8188 29.4943 36.0039 29.6897 36.1993C29.7669 36.2764 29.844 36.2918 29.9314 36.2301C30.0085 36.1787 30.0857 36.1273 30.1474 36.0656C31.6951 34.5127 33.2377 32.9599 34.7854 31.4122C35.2225 30.9751 35.6698 30.5535 36.112 30.1319C36.3126 29.9416 36.3228 29.8748 36.1223 29.6742C35.5618 29.0984 34.9962 28.5328 34.4357 27.9569C34.3278 27.8489 34.2455 27.89 34.1632 27.9723C33.9216 28.214 33.6799 28.4608 33.4382 28.7024C33.1091 29.0367 32.7852 29.3657 32.4612 29.7C32.415 29.7462 32.3687 29.7874 32.2556 29.8851L32.2813 29.8799Z" fill="white"/>
<path d="M12.2279 9.81156C11.6726 9.23567 11.1224 8.65979 10.5671 8.0839C10.4797 7.99649 10.3974 7.90394 10.31 7.82167C10.2071 7.71883 10.202 7.63142 10.31 7.52344C10.6236 7.22007 10.927 6.91156 11.2355 6.60819C11.4875 6.36138 11.7394 6.11457 11.9862 5.86262C12.1611 5.6878 12.1559 5.64666 11.9862 5.47698C11.4309 4.9268 10.8756 4.37663 10.3254 3.82131C10.166 3.66191 10.0992 3.65163 9.93975 3.80588C9.7495 3.98585 9.57468 4.18124 9.38957 4.37148C8.68512 5.0862 7.98068 5.8112 7.26595 6.52078C6.26327 7.5183 5.25545 8.51067 4.24763 9.49791C4.03681 9.70872 3.81056 9.90412 3.58432 10.1149C3.64602 10.1869 3.68202 10.2383 3.72315 10.2795C4.74125 11.2873 5.76964 12.2951 6.7826 13.3029C8.12979 14.6449 9.47184 15.9869 10.819 17.3341C10.9836 17.4986 11.143 17.6632 11.3075 17.8226C11.3846 17.8946 11.3949 17.9614 11.3281 18.0385C11.3024 18.0642 11.2818 18.1002 11.2561 18.1259C10.7162 18.6761 10.1763 19.2263 9.6261 19.7662C9.22502 20.157 9.27644 20.0696 8.96793 19.7662C7.53847 18.3368 6.11415 16.9125 4.68469 15.483C3.81571 14.6089 2.95186 13.7348 2.08801 12.8555C1.58925 12.3465 1.09048 11.8426 0.596853 11.3284C0.478588 11.205 0.37575 11.0662 0.283195 10.9222C-0.112734 10.3103 -0.102451 9.74986 0.370608 9.1894C0.751111 8.74206 1.17275 8.33071 1.58925 7.90908C2.51994 6.96812 3.45577 6.03744 4.39675 5.10163C5.59482 3.91386 6.79289 2.72609 7.98582 1.53318C8.32004 1.19896 8.63884 0.854459 8.98335 0.530522C9.14789 0.376266 9.34329 0.242578 9.54897 0.139741C10.0632 -0.112209 10.5568 -0.00937235 10.9887 0.335132C11.3281 0.60765 11.6572 0.905877 11.976 1.20925C12.5776 1.77999 13.1689 2.36102 13.7602 2.94719C15.092 4.27379 16.4186 5.60553 17.7452 6.93727C18.4651 7.65713 19.1695 8.38727 19.8894 9.11227C19.982 9.20482 19.9974 9.29738 19.9305 9.40021C19.874 9.48763 19.8174 9.5699 19.7454 9.64188C18.8559 10.5314 17.9612 11.421 17.0716 12.3105C16.5574 12.8247 16.0484 13.344 15.5342 13.8633C15.2977 14.0999 15.0611 14.3261 14.8143 14.5472C14.7835 14.5781 14.6909 14.5781 14.6498 14.5575C14.5624 14.5061 14.4904 14.4341 14.4184 14.3621C13.935 13.8685 13.462 13.3646 12.9735 12.8761C12.8604 12.763 12.8552 12.6859 12.9735 12.5727C13.6317 11.9249 14.2795 11.2718 14.9326 10.624C15.2462 10.3155 15.5599 10.007 15.8787 9.70358C15.9661 9.62131 15.9764 9.54419 15.9147 9.45163C15.8684 9.38479 15.817 9.32309 15.7604 9.26653C15.3182 8.8089 14.8709 8.35128 14.4287 7.89365C14.3207 7.78053 14.2333 7.81138 14.1459 7.90394C13.8836 8.16617 13.6265 8.43355 13.3643 8.69064C13.0095 9.04543 12.6496 9.39507 12.2382 9.80128L12.2279 9.81156Z" fill="white"/>
<path d="M29.2683 4.52558C29.3352 4.46388 29.4226 4.39704 29.5048 4.31477C30.1116 3.70803 30.7286 3.11157 31.3199 2.49455C31.865 1.92381 32.5386 1.64615 33.3047 1.54845C34.1274 1.44561 34.8422 1.70785 35.4695 2.21175C36.2871 2.86991 37.0018 3.64118 37.7114 4.4176C38.1793 4.93179 38.4107 5.55909 38.457 6.24296C38.4775 6.55147 38.4055 6.88055 38.3233 7.18906C38.1484 7.83179 37.7628 8.3614 37.3 8.83445C36.6933 9.45662 36.0865 10.0788 35.4849 10.6958C35.4695 10.7112 35.4541 10.7215 35.4438 10.7267C33.3921 8.65963 31.3405 6.60289 29.2735 4.52044L29.2683 4.52558Z" fill="white"/>
<path d="M2.91066 33.8087C4.00075 34.9091 5.05999 35.9786 6.1398 37.0687C6.05238 37.1098 5.97525 37.1561 5.89298 37.1869C5.32737 37.4029 4.7669 37.624 4.20129 37.8245C3.62025 38.0353 3.02892 38.2307 2.4376 38.4158C2.26278 38.4724 2.06738 38.4878 1.8977 38.3696C1.58918 38.1587 1.49148 37.9479 1.60461 37.588C1.81543 36.9144 2.04167 36.246 2.26792 35.5775C2.41703 35.125 2.57129 34.6777 2.72555 34.2252C2.77183 34.0915 2.83867 33.963 2.91066 33.8036V33.8087Z" fill="white"/>
</g>
<rect x="-30.25" y="-46.25" width="380.5" height="431.5" rx="20.25" stroke="white" stroke-width="0.5"/>
</g>
</g>
<defs>
<filter id="filter0_b_734_4202" x="-50.5" y="-66.5" width="421" height="472" filterUnits="userSpaceOnUse" color-interpolation-filters="sRGB">
<feFlood flood-opacity="0" result="BackgroundImageFix"/>
<feGaussianBlur in="BackgroundImageFix" stdDeviation="10"/>
<feComposite in2="SourceAlpha" operator="in" result="effect1_backgroundBlur_734_4202"/>
<feBlend mode="normal" in="SourceGraphic" in2="effect1_backgroundBlur_734_4202" result="shape"/>
</filter>
<filter id="filter1_b_734_4202" x="-40" y="-40" width="120" height="120" filterUnits="userSpaceOnUse" color-interpolation-filters="sRGB">
<feFlood flood-opacity="0" result="BackgroundImageFix"/>
<feGaussianBlur in="BackgroundImageFix" stdDeviation="20"/>
<feComposite in2="SourceAlpha" operator="in" result="effect1_backgroundBlur_734_4202"/>
<feBlend mode="normal" in="SourceGraphic" in2="effect1_backgroundBlur_734_4202" result="shape"/>
</filter>
<linearGradient id="paint0_linear_734_4202" x1="1653.4" y1="1705.73" x2="3152.09" y2="758.369" gradientUnits="userSpaceOnUse">
<stop stop-color="#332950"/>
<stop offset="0.489583" stop-color="#3C257E"/>
<stop offset="1" stop-color="#322D41"/>
</linearGradient>
<clipPath id="clip0_734_4202">
<rect width="1728" height="8732" fill="white" transform="translate(-304 -5486)"/>
</clipPath>
</defs>
</svg>
