<svg width="382" height="384" viewBox="0 0 382 384" fill="none" xmlns="http://www.w3.org/2000/svg">
<g id="Group 1734">
<g id="Vector" filter="url(#filter0_d_787_4400)">
<path d="M268.509 173.022C268.4 185.479 265.642 197.355 260.925 208.832C258.312 215.224 254.828 221.144 251.09 226.918C249.965 228.661 248.804 230.368 247.643 232.112C246.626 233.637 246.59 234.509 247.897 235.852C251.598 239.738 255.263 243.661 259.146 247.365C265.207 253.14 271.195 259.023 277.037 265.088C284.077 272.388 291.517 279.361 298.738 286.552C301.061 288.877 303.311 291.274 305.234 293.925C307.339 296.83 307.521 300.135 305.924 303.477C304 307.544 298.376 308.852 295.327 307.544C293.658 306.818 291.916 305.946 290.61 304.712C286.509 300.789 282.626 296.649 278.634 292.654C271.703 285.753 264.662 278.926 257.767 271.989C251.163 265.343 244.667 258.551 238.135 251.869C237.191 250.888 236.175 249.98 235.123 249.108C233.453 247.765 232.219 247.874 230.478 249.108C222.095 255.21 213.167 260.222 203.369 263.781C192.156 267.885 180.652 269.846 168.713 269.374C160.801 269.047 152.999 268.03 145.415 265.67C138.229 263.454 131.588 260.04 125.02 256.481C119.975 253.757 115.076 250.743 110.649 247.038C105.641 242.898 101.323 238.104 97.3307 232.983C93.3751 227.862 89.4558 222.742 86.3349 217.04C83.1777 211.338 81.1092 205.236 79.2584 199.062C77.1899 192.089 75.5206 185.043 75.1214 177.743C74.8311 171.751 75.1214 165.758 76.1012 159.766C78.7141 144.367 84.2664 130.13 93.3388 117.419C105.46 100.386 121.536 88.4009 141.169 81.3189C151.584 77.5781 162.398 75.7985 173.466 75.9801C182.938 76.1617 192.047 78.0503 201.083 80.9557C213.276 84.8781 223.764 91.5243 233.707 99.4053C244.159 107.686 251.78 118.109 257.55 129.985C259.909 134.779 262.122 139.682 263.864 144.73C266.041 151.013 267.42 157.514 267.82 164.233C268.001 167.175 268.255 170.117 268.473 173.058L268.509 173.022ZM94.1009 174.257C94.3549 177.453 94.4275 182.174 95.1533 186.787C96.496 195.321 99.6895 203.311 103.718 210.902C107.528 218.057 112.609 224.158 118.596 229.642C125.383 235.816 132.749 241.119 141.314 244.532C149.007 247.583 157.064 249.181 165.338 249.726C176.478 250.489 187.329 249.581 197.962 245.985C204.966 243.588 211.788 240.828 217.522 236.034C220.679 233.419 223.728 230.732 226.595 227.826C231.494 222.887 236.356 217.839 239.623 211.628C245.538 200.333 249.239 188.421 249.094 175.528C249.022 169.245 249.058 162.962 247.86 156.752C245.61 145.093 240.929 134.525 233.453 125.227C227.937 118.4 221.768 112.153 214.401 107.395C205.365 101.584 195.531 97.6257 184.825 96.1004C174.519 94.6476 164.249 94.8292 154.051 96.972C144.29 99.0058 135.544 103.182 127.306 108.775C115.004 117.165 106.294 128.46 100.198 141.825C95.7339 151.594 94.2098 162.054 94.1009 174.221V174.257Z" fill="#3C257E"/>
</g>
<ellipse id="Ellipse 2" cx="171.977" cy="172.98" rx="82" ry="79" fill="white"/>
<path id="Vector_2" d="M171.181 172.15C165.374 172.695 160.403 170.443 155.939 167.247C149.915 162.889 145.379 157.26 143.709 149.706C141.532 139.936 144.326 131.728 151.149 124.574C154.887 120.688 159.024 117.455 164.249 115.966C173.721 113.242 182.213 115.276 189.579 121.705C194.37 125.918 197.962 131.038 199.595 137.321C200.902 142.261 200.648 147.273 199.16 152.103C196.184 161.763 189.253 167.72 180.035 171.061C177.277 172.078 174.12 172.078 171.144 172.55C171.144 172.441 171.144 172.296 171.144 172.187L171.181 172.15Z" fill="#3C257E"/>
<path id="Vector_3" d="M171.58 230.514C158.189 230.659 146.613 225.72 136.016 218.02C135.254 217.475 134.601 216.749 133.984 216.059C132.532 214.388 132.351 213.989 133.73 212.209C135.762 209.558 137.794 206.798 140.298 204.619C148.609 197.319 158.516 193.397 169.439 192.38C176.588 191.726 183.447 193.542 190.051 196.302C197.709 199.498 203.805 204.8 209.394 210.793C209.974 211.41 210.337 212.173 210.882 212.79C211.644 213.662 211.426 214.352 210.773 215.151C209.067 217.185 206.926 218.674 204.712 220.054C198.217 224.158 191.43 227.645 183.918 229.279C179.89 230.15 175.717 230.368 171.58 230.877C171.58 230.768 171.58 230.659 171.58 230.55V230.514Z" fill="#3C257E"/>
</g>
<defs>
<filter id="filter0_d_787_4400" x="0.0141602" y="0.967529" width="381.972" height="382.065" filterUnits="userSpaceOnUse" color-interpolation-filters="sRGB">
<feFlood flood-opacity="0" result="BackgroundImageFix"/>
<feColorMatrix in="SourceAlpha" type="matrix" values="0 0 0 0 0 0 0 0 0 0 0 0 0 0 0 0 0 0 127 0" result="hardAlpha"/>
<feOffset/>
<feGaussianBlur stdDeviation="37.5"/>
<feComposite in2="hardAlpha" operator="out"/>
<feColorMatrix type="matrix" values="0 0 0 0 0.235294 0 0 0 0 0.145098 0 0 0 0 0.494118 0 0 0 0.6 0"/>
<feBlend mode="normal" in2="BackgroundImageFix" result="effect1_dropShadow_787_4400"/>
<feBlend mode="normal" in="SourceGraphic" in2="effect1_dropShadow_787_4400" result="shape"/>
</filter>
</defs>
</svg>
