<svg width="40" height="40" viewBox="0 0 40 40" fill="none" xmlns="http://www.w3.org/2000/svg">
<g id="Group 1740" filter="url(#filter0_b_787_4568)">
<path id="Vector" d="M40 36C40 38.2091 38.2091 40 36 40H2.73473C1.24897 40 0.0676922 38.7529 0.148218 37.2693C0.148218 25.4069 0 16.0691 0.00512821 4.2067C0.00512821 3.38839 0.117949 2.57615 0.476923 1.85483C0.974359 0.866798 1.72821 0.284892 2.69231 0.12123C3.12821 0.0484922 3.57436 0 4.01538 0C14.8 0 25.5846 0 36.3744 0C37.0051 0 37.6205 0.115169 38.1949 0.43643C39.1128 0.957721 39.6718 1.83058 39.8667 3.00652C39.9436 3.47931 39.9949 3.9703 39.9949 4.44916C40 16.2085 40 24.2406 40 36ZM3.08205 31.357C3.08205 34.1184 5.32063 36.357 8.08205 36.357H31.9077C34.6691 36.357 36.9077 34.1185 36.9077 31.357V14.6729C36.9077 11.9114 34.6691 9.67287 31.9077 9.67287H19.9949H8.08205C5.32063 9.67287 3.08205 11.9114 3.08205 14.6729L3.08205 31.357Z" fill="white"/>
<path id="Vector_2" d="M18.3613 30.0135C17.518 30.0043 16.8433 29.2152 17.0318 28.4169C17.2452 27.5263 17.4932 26.645 17.7313 25.7636C18.2968 23.6733 18.8624 21.5875 19.4329 19.5018C19.6115 18.8465 19.795 18.1913 19.9984 17.5406C20.0679 17.3145 20.172 17.0884 20.301 16.8808C20.7723 16.1425 21.7892 16.0409 22.454 16.6362C22.8955 17.0331 22.9451 17.4945 22.8062 18.0159C22.4986 19.1649 22.196 20.3139 21.8835 21.4675C21.4221 23.198 20.9558 24.9284 20.4895 26.6634C20.306 27.3556 20.1224 28.0524 19.9289 28.7445C19.8893 28.8876 19.8297 29.0306 19.7702 29.1645C19.5271 29.6859 18.9666 30.0274 18.3613 30.0181V30.0135Z" fill="white"/>
<path id="Vector_3" d="M27.4188 17.6641C27.7622 17.6409 28.0811 17.8261 28.3166 18.1317C28.6845 18.6132 29.0377 19.0994 29.3909 19.5901C30.166 20.6828 30.9362 21.7801 31.7113 22.8728C31.932 23.1877 31.9271 23.1969 31.7113 23.5118C31.26 24.1878 30.8233 24.873 30.3573 25.5444C29.7686 26.3916 29.1554 27.2204 28.5569 28.0585C28.3656 28.3224 28.1154 28.5122 27.8064 28.6326C27.2962 28.8317 26.6879 28.6974 26.2905 28.3038C25.849 27.8686 25.7411 27.3454 26.0551 26.8176C26.3543 26.3083 26.7075 25.8314 27.046 25.3453C27.517 24.6739 27.9928 24.0072 28.4686 23.3405C28.552 23.2293 28.5422 23.1506 28.4637 23.0349C27.9781 22.3589 27.5022 21.6829 27.0313 21.0023C26.7026 20.53 26.3543 20.0717 26.0747 19.5763C25.5007 18.5715 26.3887 17.6594 27.4188 17.6641Z" fill="white"/>
<path id="Vector_4" d="M12.696 28.7238C12.2382 28.7238 11.9084 28.5693 11.6819 28.2743C11.3029 27.7826 10.9435 27.2769 10.5891 26.7712C9.80638 25.6567 9.03351 24.5375 8.24096 23.4277C8.0982 23.2264 8.07851 23.0812 8.23111 22.8752C8.81199 22.0698 9.3781 21.2503 9.94914 20.4355C10.4562 19.7097 10.9632 18.9839 11.4801 18.2627C11.6081 18.0895 11.7656 17.9303 11.9379 17.7945C12.2234 17.565 12.5631 17.4901 12.9323 17.5838C13.5772 17.7477 13.971 18.141 14.1088 18.7638C14.158 18.9839 14.0891 19.1993 13.9808 19.3819C13.7544 19.7706 13.5082 20.1545 13.2523 20.5292C12.6714 21.3814 12.0856 22.2243 11.4949 23.0672C11.4309 23.1561 11.4604 23.217 11.5096 23.2919C11.9625 23.9335 12.4203 24.575 12.8732 25.2212C13.2129 25.7035 13.5279 26.1999 13.8725 26.6775C14.4583 27.4876 13.8627 28.4616 13.0258 28.663C12.8978 28.6911 12.7649 28.7098 12.6911 28.7238H12.696Z" fill="white"/>
</g>
<defs>
<filter id="filter0_b_787_4568" x="-39.9951" y="-40" width="119.995" height="120" filterUnits="userSpaceOnUse" color-interpolation-filters="sRGB">
<feFlood flood-opacity="0" result="BackgroundImageFix"/>
<feGaussianBlur in="BackgroundImageFix" stdDeviation="20"/>
<feComposite in2="SourceAlpha" operator="in" result="effect1_backgroundBlur_787_4568"/>
<feBlend mode="normal" in="SourceGraphic" in2="effect1_backgroundBlur_787_4568" result="shape"/>
</filter>
</defs>
</svg>
