<svg width="163" height="245" viewBox="0 0 163 245" fill="none" xmlns="http://www.w3.org/2000/svg">
<mask id="mask0_1_4" style="mask-type:luminance" maskUnits="userSpaceOnUse" x="0" y="52" width="163" height="141">
<path d="M163 52H0V193H163V52Z" fill="white"/>
</mask>
<g mask="url(#mask0_1_4)">
<path fill-rule="evenodd" clip-rule="evenodd" d="M101.075 136.337C91.605 143.31 77.8786 147.031 66.0604 147.031C49.4894 147.031 34.5712 140.908 23.285 130.724C22.3984 129.923 23.1929 128.832 24.2569 129.456C36.4369 136.535 51.4969 140.795 67.0535 140.795C77.5452 140.795 89.0867 138.626 99.6989 134.126C101.302 133.446 102.643 135.175 101.075 136.337Z" fill="#D0D0D0"/>
<path fill-rule="evenodd" clip-rule="evenodd" d="M105.012 131.837C103.806 130.292 97.0103 131.107 93.9599 131.468C93.0307 131.582 92.8889 130.774 93.7259 130.193C99.1384 126.387 108.02 127.485 109.055 128.761C110.091 130.044 108.786 138.938 103.7 143.183C102.919 143.835 102.174 143.488 102.522 142.623C103.664 139.774 106.225 133.389 105.012 131.837Z" fill="#D0D0D0"/>
<path fill-rule="evenodd" clip-rule="evenodd" d="M94.1724 103.326V99.6271C94.1724 99.0672 94.598 98.6916 95.1087 98.6916H111.687C112.219 98.6916 112.645 99.0742 112.645 99.6271V102.795C112.638 103.326 112.191 104.021 111.396 105.119L102.806 117.372C105.998 117.295 109.367 117.769 112.262 119.399C112.914 119.768 113.092 120.307 113.141 120.838V124.785C113.141 125.324 112.545 125.955 111.921 125.629C106.821 122.957 100.046 122.666 94.4065 125.657C93.8319 125.969 93.2289 125.345 93.2289 124.807V121.058C93.2289 120.455 93.236 119.428 93.8389 118.514L103.792 104.255H95.1299C94.598 104.255 94.1724 103.879 94.1724 103.326ZM33.6983 126.408H28.6545C28.1722 126.373 27.7892 126.011 27.7537 125.551V99.6909C27.7537 99.1735 28.1863 98.7625 28.7254 98.7625H33.4286C33.9181 98.7836 34.3083 99.1594 34.3438 99.627V103.008H34.436C35.6632 99.7406 37.9686 98.2171 41.0757 98.2171C44.2323 98.2171 46.2045 99.7406 47.6233 103.008C48.8434 99.7406 51.6171 98.2171 54.5894 98.2171C56.7032 98.2171 59.0158 99.0887 60.4274 101.045C62.0235 103.22 61.6972 106.381 61.6972 109.152L61.6901 125.473C61.6901 125.99 61.2574 126.408 60.7183 126.408H55.6817C55.1782 126.373 54.7737 125.969 54.7737 125.473V111.767C54.7737 110.675 54.8731 107.954 54.6319 106.919C54.256 105.183 53.1281 104.694 51.6666 104.694C50.4465 104.694 49.1697 105.509 48.6518 106.813C48.134 108.117 48.1837 110.3 48.1837 111.767V125.473C48.1837 125.99 47.7509 126.408 47.2118 126.408H42.1752C41.6645 126.373 41.2672 125.969 41.2672 125.473L41.2602 111.767C41.2602 108.882 41.7354 104.638 38.1531 104.638C34.5283 104.638 34.67 108.776 34.67 111.767V125.473C34.67 125.99 34.2374 126.408 33.6983 126.408ZM126.917 98.2169C134.401 98.2169 138.452 104.637 138.452 112.802C138.452 120.689 133.976 126.947 126.917 126.947C119.568 126.947 115.567 120.526 115.567 112.525C115.567 104.474 119.618 98.2169 126.917 98.2169ZM126.96 103.496C123.243 103.496 123.009 108.557 123.009 111.71C123.009 114.871 122.959 121.617 126.917 121.617C130.826 121.617 131.01 116.175 131.01 112.858C131.01 110.675 130.918 108.067 130.259 105.998C129.691 104.198 128.563 103.496 126.96 103.496ZM148.156 126.408H143.134C142.63 126.373 142.226 125.969 142.226 125.473L142.219 99.6058C142.261 99.131 142.68 98.7625 143.19 98.7625H147.865C148.305 98.7836 148.667 99.0816 148.766 99.4853V103.44H148.858C150.27 99.9036 152.249 98.2169 155.732 98.2169C157.995 98.2169 160.201 99.0317 161.62 101.264C162.939 103.333 162.939 106.813 162.939 109.315V125.593C162.883 126.047 162.464 126.408 161.968 126.408H156.91C156.449 126.373 156.066 126.033 156.016 125.593V111.547C156.016 108.719 156.342 104.581 152.859 104.581C151.632 104.581 150.504 105.403 149.944 106.65C149.234 108.231 149.142 109.804 149.142 111.547V125.473C149.135 125.99 148.695 126.408 148.156 126.408ZM80.9567 114.056C80.9567 116.019 81.0064 117.656 80.0132 119.399C79.2117 120.817 77.9349 121.688 76.5231 121.688C74.5866 121.688 73.4516 120.214 73.4516 118.039C73.4516 113.744 77.3036 112.964 80.9567 112.964V114.056ZM86.0429 126.337C85.7096 126.635 85.2272 126.656 84.8513 126.458C83.1771 125.069 82.8721 124.424 81.957 123.099C79.1904 125.919 77.2255 126.763 73.643 126.763C69.3939 126.763 66.0953 124.148 66.0953 118.911C66.0953 114.821 68.3086 112.036 71.4724 110.675C74.2107 109.471 78.0341 109.258 80.9569 108.925V108.273C80.9569 107.075 81.049 105.658 80.3396 104.623C79.7296 103.695 78.5519 103.312 77.5092 103.312C75.5867 103.312 73.8772 104.297 73.4587 106.338C73.3735 106.792 73.0401 107.238 72.5791 107.26L67.6914 106.735C67.2801 106.643 66.8189 106.31 66.9395 105.679C68.0604 99.7548 73.4232 97.9688 78.2188 97.9688C80.6732 97.9688 83.8795 98.6208 85.8162 100.478C88.2704 102.767 88.0364 105.821 88.0364 109.145V116.997C88.0364 119.357 89.0155 120.391 89.9376 121.667C90.257 122.121 90.3277 122.666 89.9164 123.007C88.8877 123.864 87.0575 125.459 86.0502 126.352L86.0429 126.337ZM14.836 114.056C14.836 116.019 14.8857 117.656 13.8924 119.399C13.0909 120.817 11.8211 121.688 10.4023 121.688C8.46581 121.688 7.33776 120.214 7.33776 118.039C7.33776 113.744 11.1898 112.964 14.836 112.964V114.056ZM19.9221 126.337C19.5888 126.635 19.1064 126.656 18.7305 126.458C17.0563 125.069 16.7583 124.424 15.8362 123.099C13.0696 125.919 11.1119 126.763 7.52224 126.763C3.28027 126.763 -0.0254669 124.148 -0.0254669 118.911C-0.0254669 114.821 2.19493 112.036 5.35155 110.675C8.08985 109.471 11.9133 109.258 14.836 108.925V108.273C14.836 107.075 14.9282 105.658 14.2258 104.623C13.6087 103.695 12.4312 103.312 11.3954 103.312C9.47309 103.312 7.75642 104.297 7.33776 106.338C7.2527 106.792 6.91927 107.238 6.46525 107.26L1.57061 106.735C1.15912 106.643 0.705266 106.31 0.818689 105.679C1.94657 99.7548 7.3024 97.9688 12.0978 97.9688C14.5521 97.9688 17.7586 98.6208 19.6952 100.478C22.1495 102.767 21.9155 105.821 21.9155 109.145V116.997C21.9155 119.357 22.8944 120.391 23.8166 121.667C24.143 122.121 24.2139 122.666 23.8024 123.007C22.7738 123.864 20.9437 125.459 19.9364 126.352L19.9221 126.337Z" fill="#D0D0D0"/>
</g>
</svg>
