<svg width="107" height="126" viewBox="0 0 107 126" fill="none" xmlns="http://www.w3.org/2000/svg">
<g id="apple">
<path id="Vector" d="M88.5705 85.9158C87.3022 88.8393 85.8009 91.5302 84.0615 94.0044C81.6905 97.3771 79.7492 99.7117 78.2531 101.008C75.934 103.136 73.449 104.226 70.7882 104.288C68.878 104.288 66.5742 103.746 63.8927 102.645C61.2023 101.551 58.7299 101.008 56.4692 101.008C54.0982 101.008 51.5553 101.551 48.8355 102.645C46.1114 103.746 43.917 104.319 42.2391 104.376C39.6875 104.484 37.1442 103.363 34.6055 101.008C32.9851 99.5981 30.9584 97.1808 28.5305 93.7564C25.9255 90.0995 23.7839 85.859 22.1061 81.0244C20.3092 75.8026 19.4084 70.746 19.4084 65.8505C19.4084 60.2428 20.6229 55.4062 23.0555 51.3531C24.9673 48.0976 27.5107 45.5295 30.6939 43.6443C33.877 41.759 37.3166 40.7983 41.0206 40.7369C43.0473 40.7369 45.705 41.3624 49.0078 42.5917C52.3013 43.8251 54.416 44.4506 55.3432 44.4506C56.0363 44.4506 58.3856 43.7192 62.3681 42.2611C66.1343 40.9089 69.3128 40.3489 71.9167 40.5695C78.9727 41.1377 84.2737 43.9129 87.7991 48.9127C81.4886 52.7276 78.367 58.0709 78.4291 64.9254C78.4861 70.2646 80.4274 74.7076 84.2427 78.2354C85.9717 79.8727 87.9026 81.1382 90.051 82.0369C89.5851 83.3849 89.0933 84.6762 88.5705 85.9158ZM72.3878 22.3801C72.3878 26.5649 70.8555 30.4722 67.8012 34.0888C64.1153 38.3883 59.6571 40.8726 54.8224 40.4806C54.7577 39.9545 54.7252 39.425 54.7251 38.8949C54.7251 34.8775 56.4779 30.5781 59.5908 27.0628C61.1449 25.2829 63.1214 23.8029 65.5182 22.6223C67.9099 21.4594 70.1721 20.8162 72.2998 20.7061C72.362 21.2655 72.3878 21.825 72.3878 22.3801Z" fill="#D0D0D0"/>
</g>
</svg>
