<svg width="116" height="245" viewBox="0 0 116 245" fill="none" xmlns="http://www.w3.org/2000/svg">
<path d="M91.533 144.344C90.2762 147.139 88.7886 149.712 87.065 152.077C84.7155 155.302 82.7919 157.534 81.3094 158.773C79.0114 160.808 76.549 161.85 73.9124 161.909C72.0196 161.909 69.7368 161.391 67.0796 160.338C64.4137 159.292 61.9638 158.773 59.7237 158.773C57.3742 158.773 54.8545 159.292 52.1594 160.338C49.4601 161.391 47.2857 161.939 45.623 161.993C43.0946 162.096 40.5745 161.025 38.0589 158.773C36.4532 157.425 34.4449 155.114 32.0391 151.84C29.4578 148.344 27.3357 144.29 25.6732 139.668C23.8926 134.675 23 129.841 23 125.161C23 119.799 24.2035 115.175 26.6139 111.3C28.5083 108.188 31.0286 105.733 34.1828 103.93C37.337 102.128 40.7453 101.209 44.4156 101.151C46.4239 101.151 49.0574 101.749 52.3302 102.924C55.5937 104.103 57.6892 104.701 58.6079 104.701C59.2947 104.701 61.6226 104.002 65.5689 102.608C69.3009 101.315 72.4504 100.78 75.0307 100.991C82.0225 101.534 87.2753 104.187 90.7686 108.967C84.5155 112.614 81.4223 117.723 81.4838 124.276C81.5403 129.381 83.4639 133.629 87.2445 137.001C88.9578 138.567 90.8711 139.777 93 140.636C92.5383 141.925 92.051 143.159 91.533 144.344ZM75.4975 83.6004C75.4975 87.6013 73.9791 91.3369 70.9526 94.7946C67.3002 98.9052 62.8826 101.28 58.0919 100.906C58.0277 100.403 57.9955 99.8963 57.9954 99.3895C57.9954 95.5487 59.7323 91.4382 62.8169 88.0774C64.3568 86.3757 66.3154 84.9607 68.6904 83.832C71.0603 82.7202 73.3019 82.1053 75.4103 82C75.4719 82.5348 75.4975 83.0697 75.4975 83.6004Z" fill="#D0D0D0"/>
</svg>
