<svg width="213" height="245" viewBox="0 0 213 245" fill="none" xmlns="http://www.w3.org/2000/svg">
<mask id="mask0_1_479" style="mask-type:luminance" maskUnits="userSpaceOnUse" x="0" y="30" width="212" height="185">
<path d="M212 30H0V215H212V30Z" fill="white"/>
</mask>
<g mask="url(#mask0_1_479)">
<path d="M209.62 145.187C209.751 145.188 209.881 145.162 210.001 145.112C210.121 145.061 210.23 144.986 210.32 144.891C210.411 144.797 210.48 144.685 210.526 144.562C210.571 144.439 210.59 144.309 210.583 144.178C210.583 143.463 210.151 143.122 209.265 143.122H207.833V146.865H208.372V145.233H209.033L209.048 145.253L210.075 146.865H210.651L209.546 145.197L209.62 145.187ZM208.998 144.812H208.373V143.546H209.165C209.573 143.546 210.039 143.613 210.039 144.147C210.039 144.762 209.568 144.812 208.994 144.812M-0.128414 104.251H7.81875V133.172H22.5313V140.499H-0.128414V104.251ZM26.0448 115.922H33.6795V140.485H26.0448V115.922ZM29.8621 103.71C30.7381 103.71 31.5943 103.97 32.3225 104.456C33.0507 104.942 33.6182 105.633 33.9533 106.442C34.2884 107.25 34.376 108.14 34.205 108.998C34.0341 109.857 33.6122 110.645 32.9928 111.264C32.3733 111.882 31.5842 112.304 30.7251 112.474C29.866 112.645 28.9755 112.557 28.1663 112.222C27.3571 111.888 26.6654 111.32 26.1788 110.593C25.6922 109.865 25.4325 109.01 25.4325 108.135C25.4325 107.554 25.5471 106.978 25.7697 106.441C25.9923 105.904 26.3186 105.417 26.7299 105.006C27.1413 104.595 27.6296 104.269 28.167 104.047C28.7045 103.824 29.2805 103.71 29.8621 103.71ZM65.6161 104.245H73.2507V125.908L81.9033 115.911H91.2636L81.2432 127.283L91.0529 140.496H81.4571L73.3525 128.354H73.2523V140.494H65.6176L65.6161 104.245ZM37.9127 115.924H45.2443V119.281H45.3485C46.0808 118.028 47.1401 116.996 48.4134 116.298C49.6866 115.599 51.1259 115.259 52.5775 115.313C60.3195 115.313 61.7447 120.402 61.7447 127.013V140.484H54.11V128.541C54.11 125.691 54.0575 122.026 50.1337 122.026C46.1653 122.026 45.5529 125.13 45.5529 128.334V140.481H37.9183L37.9127 115.924Z" fill="#D0D0D0"/>
<path d="M107.342 125.346C107.356 124.727 107.245 124.112 107.015 123.537C106.784 122.963 106.44 122.441 106.001 122.003C105.563 121.566 105.04 121.222 104.465 120.992C103.89 120.762 103.274 120.651 102.655 120.666C101.321 120.584 100.007 121.028 98.9982 121.903C97.9889 122.778 97.3645 124.015 97.2594 125.346H107.342ZM113.809 136.231C112.54 137.768 110.945 139.004 109.14 139.849C107.334 140.695 105.363 141.128 103.369 141.118C95.7341 141.118 89.6216 136.027 89.6216 128.143C89.6216 120.259 95.7333 115.17 103.369 115.17C110.505 115.17 114.98 120.255 114.98 128.143V130.534H97.2594C97.48 131.891 98.1838 133.122 99.2412 134.001C100.299 134.879 101.638 135.347 103.013 135.317C104.1 135.31 105.168 135.032 106.119 134.508C107.071 133.983 107.876 133.23 108.462 132.315L113.809 136.231ZM130.893 121.859C127.076 121.859 124.785 124.405 124.785 128.116C124.785 131.826 127.075 134.375 130.893 134.375C134.711 134.375 137.006 131.833 137.006 128.116C137.006 124.399 134.715 121.859 130.893 121.859ZM144.035 140.48H137.006V137.223H136.902C136.02 138.408 134.877 139.373 133.56 140.044C132.244 140.715 130.79 141.073 129.312 141.091C121.976 141.091 117.144 135.801 117.144 128.322C117.144 121.452 121.421 115.144 128.45 115.144C131.61 115.144 134.561 116.008 136.292 118.402H136.392V104.243H144.034L144.035 140.48ZM195.576 140.495H187.941V128.55C187.941 125.701 187.89 122.035 183.97 122.035C179.994 122.035 179.386 125.138 179.386 128.342V140.494H171.751V115.93H179.08V119.287H179.183C179.916 118.034 180.976 117.003 182.25 116.305C183.523 115.606 184.962 115.265 186.414 115.319C194.152 115.319 195.579 120.404 195.579 127.019L195.576 140.495ZM163.137 112.573C162.26 112.573 161.404 112.313 160.675 111.827C159.946 111.341 159.378 110.65 159.043 109.841C158.707 109.032 158.62 108.142 158.79 107.284C158.961 106.425 159.383 105.636 160.002 105.017C160.622 104.398 161.411 103.976 162.271 103.805C163.13 103.634 164.021 103.722 164.831 104.057C165.64 104.391 166.332 104.959 166.819 105.687C167.306 106.414 167.566 107.27 167.566 108.146C167.566 108.727 167.452 109.302 167.229 109.839C167.007 110.377 166.681 110.865 166.269 111.276C165.858 111.687 165.37 112.013 164.832 112.235C164.295 112.458 163.718 112.573 163.137 112.573ZM166.954 140.495H159.311V115.93H166.954V140.495ZM199.382 96.6368H155.475C154.478 96.6256 153.518 97.0101 152.805 97.7058C152.092 98.4016 151.685 99.3516 151.673 100.347V144.395C151.685 145.391 152.092 146.342 152.805 147.038C153.517 147.735 154.478 148.12 155.475 148.109H199.382C200.381 148.122 201.344 147.738 202.06 147.041C202.776 146.345 203.186 145.393 203.199 144.395V100.344C203.185 99.3465 202.775 98.3954 202.059 97.6996C201.344 97.0039 200.381 96.6205 199.382 96.6337M209.063 141.454C208.134 141.463 207.247 141.839 206.594 142.5C205.942 143.16 205.579 144.053 205.583 144.981C205.588 145.909 205.96 146.797 206.618 147.452C207.277 148.106 208.168 148.474 209.097 148.474C210.026 148.474 210.917 148.106 211.575 147.452C212.234 146.797 212.606 145.909 212.61 144.981C212.615 144.053 212.251 143.16 211.599 142.5C210.947 141.839 210.059 141.463 209.131 141.454H209.063ZM209.063 148.072C208.454 148.082 207.855 147.912 207.343 147.582C206.831 147.252 206.428 146.778 206.185 146.22C205.943 145.661 205.871 145.043 205.98 144.444C206.089 143.845 206.374 143.292 206.797 142.855C207.221 142.417 207.765 142.115 208.36 141.986C208.956 141.857 209.576 141.908 210.143 142.132C210.71 142.355 211.198 142.742 211.544 143.242C211.891 143.742 212.082 144.334 212.092 144.943V144.995C212.109 145.793 211.808 146.566 211.255 147.143C210.702 147.719 209.942 148.053 209.143 148.07H209.064" fill="#D0D0D0"/>
</g>
</svg>
