<svg width="292" height="245" viewBox="0 0 292 245" fill="none" xmlns="http://www.w3.org/2000/svg">
<path d="M107.97 127.115L106.279 131.891H106.138C105.856 130.814 105.339 129.176 104.493 127.209L95.4255 104.501H86.5454V140.694H92.4185V118.36C92.4185 116.955 92.4185 115.363 92.3715 113.397C92.3245 112.414 92.2305 111.664 92.1836 111.103H92.3245C92.6064 112.507 92.9353 113.537 93.1702 114.193L104.071 140.6H108.205L119.012 113.959C119.247 113.35 119.482 112.133 119.716 111.103H119.857C119.716 113.771 119.623 116.159 119.576 117.611V140.553H125.824V104.407H117.273L107.97 127.115ZM131.745 114.614H137.853V140.553H131.745V114.614ZM134.846 103.658C133.812 103.658 132.966 104.033 132.261 104.688C131.557 105.344 131.181 106.186 131.181 107.216C131.181 108.2 131.557 109.042 132.261 109.698C132.966 110.353 133.812 110.681 134.846 110.681C135.879 110.681 136.772 110.307 137.43 109.698C138.134 109.042 138.51 108.2 138.51 107.216C138.51 106.233 138.134 105.39 137.43 104.688C136.819 104.033 135.926 103.658 134.846 103.658ZM159.512 114.38C158.385 114.146 157.21 114.005 156.083 114.005C153.31 114.005 150.773 114.614 148.659 115.832C146.545 117.049 144.853 118.734 143.773 120.841C142.645 122.995 142.081 125.477 142.081 128.333C142.081 130.814 142.645 133.015 143.726 135.028C144.806 136.995 146.31 138.587 148.33 139.664C150.256 140.74 152.512 141.302 155.049 141.302C157.962 141.302 160.452 140.694 162.425 139.57L162.472 139.523V133.905L162.237 134.092C161.345 134.747 160.311 135.309 159.277 135.637C158.197 136.012 157.21 136.199 156.364 136.199C153.921 136.199 151.995 135.497 150.632 133.951C149.223 132.453 148.518 130.393 148.518 127.818C148.518 125.149 149.223 123.042 150.679 121.497C152.136 119.952 154.062 119.156 156.411 119.156C158.385 119.156 160.405 119.811 162.237 121.122L162.472 121.31V115.363L162.425 115.316C161.627 114.989 160.734 114.614 159.512 114.38ZM179.669 114.193C178.165 114.193 176.756 114.661 175.534 115.644C174.5 116.487 173.796 117.704 173.185 119.156H173.138V114.614H167.03V140.553H173.138V127.303C173.138 125.055 173.608 123.182 174.641 121.825C175.675 120.42 176.991 119.718 178.588 119.718C179.152 119.718 179.716 119.858 180.42 119.952C181.078 120.139 181.548 120.326 181.877 120.56L182.112 120.748V114.661L181.971 114.614C181.548 114.333 180.702 114.193 179.669 114.193ZM196.301 114.052C192.026 114.052 188.596 115.316 186.2 117.798C183.756 120.28 182.582 123.698 182.582 128.005C182.582 132.032 183.803 135.309 186.153 137.697C188.502 140.038 191.697 141.256 195.69 141.256C199.872 141.256 203.208 139.991 205.604 137.463C208.047 134.935 209.222 131.564 209.222 127.396C209.222 123.276 208.094 119.999 205.792 117.611C203.584 115.223 200.342 114.052 196.301 114.052ZM201.188 133.998C200.06 135.45 198.275 136.152 196.066 136.152C193.858 136.152 192.073 135.45 190.804 133.905C189.535 132.453 188.925 130.346 188.925 127.677C188.925 124.915 189.582 122.808 190.804 121.31C192.073 119.811 193.811 119.062 196.019 119.062C198.181 119.062 199.872 119.765 201.094 121.216C202.315 122.667 202.973 124.774 202.973 127.537C202.879 130.346 202.362 132.547 201.188 133.998ZM222.848 125.383C220.921 124.587 219.7 123.978 219.136 123.463C218.666 122.995 218.431 122.34 218.431 121.497C218.431 120.795 218.713 120.092 219.418 119.624C220.122 119.156 220.921 118.922 222.096 118.922C223.129 118.922 224.21 119.109 225.244 119.39C226.277 119.671 227.217 120.092 227.969 120.654L228.204 120.841V115.129L228.063 115.082C227.358 114.801 226.418 114.521 225.291 114.286C224.163 114.099 223.129 114.005 222.284 114.005C219.371 114.005 216.974 114.708 215.095 116.253C213.216 117.704 212.323 119.671 212.323 121.965C212.323 123.182 212.511 124.259 212.934 125.149C213.357 126.039 213.967 126.881 214.813 127.584C215.659 128.239 216.88 128.988 218.572 129.691C219.981 130.299 221.062 130.768 221.72 131.142C222.378 131.517 222.801 131.938 223.129 132.266C223.364 132.64 223.505 133.109 223.505 133.717C223.505 135.45 222.19 136.292 219.512 136.292C218.478 136.292 217.397 136.105 216.129 135.684C214.86 135.262 213.686 134.654 212.699 133.951L212.464 133.764V139.71L212.605 139.757C213.498 140.179 214.578 140.46 215.894 140.787C217.209 141.021 218.384 141.209 219.418 141.209C222.566 141.209 225.15 140.506 226.982 138.961C228.862 137.463 229.848 135.543 229.848 133.062C229.848 131.329 229.378 129.784 228.345 128.614C226.982 127.49 225.291 126.32 222.848 125.383ZM245.964 114.052C241.688 114.052 238.258 115.316 235.862 117.798C233.466 120.28 232.244 123.698 232.244 128.005C232.244 132.032 233.466 135.309 235.815 137.697C238.164 140.038 241.359 141.256 245.353 141.256C249.535 141.256 252.871 139.991 255.267 137.463C257.71 134.935 258.885 131.564 258.885 127.396C258.885 123.276 257.757 119.999 255.455 117.611C253.247 115.223 250.005 114.052 245.964 114.052ZM250.803 133.998C249.676 135.45 247.89 136.152 245.682 136.152C243.427 136.152 241.688 135.45 240.42 133.905C239.151 132.453 238.54 130.346 238.54 127.677C238.54 124.915 239.198 122.808 240.42 121.31C241.688 119.811 243.427 119.062 245.635 119.062C247.749 119.062 249.488 119.765 250.709 121.216C251.931 122.667 252.589 124.774 252.589 127.537C252.589 130.346 251.978 132.547 250.803 133.998ZM291.539 119.624V114.614H285.384V106.935L285.196 106.982L279.37 108.715L279.229 108.761V114.614H270.02V111.337C270.02 109.838 270.396 108.668 271.054 107.919C271.711 107.17 272.698 106.795 273.92 106.795C274.765 106.795 275.658 106.982 276.645 107.404L276.88 107.544V102.253L276.739 102.206C275.893 101.926 274.765 101.738 273.309 101.738C271.477 101.738 269.879 102.16 268.423 102.862C266.966 103.658 265.885 104.735 265.087 106.186C264.288 107.591 263.865 109.183 263.865 111.009V114.614H259.589V119.577H263.865V140.553H270.02V119.624H279.229V132.968C279.229 138.446 281.813 141.209 286.981 141.209C287.827 141.209 288.72 141.068 289.566 140.928C290.458 140.74 291.116 140.506 291.492 140.319L291.539 140.272V135.262L291.304 135.45C290.928 135.684 290.599 135.871 290.035 136.012C289.566 136.152 289.143 136.199 288.814 136.199C287.592 136.199 286.746 135.918 286.136 135.216C285.572 134.56 285.29 133.483 285.29 131.891V119.624H291.539Z" fill="#D0D0D0"/>
<path d="M7.79932 92.3271H36.6008V121.029H7.79932V92.3271Z" fill="#D0D0D0"/>
<path d="M39.6079 92.3271H68.4094V121.029H39.6079V92.3271Z" fill="#D0D0D0"/>
<path d="M7.79932 124.025H36.6008V152.726H7.79932V124.025Z" fill="#D0D0D0"/>
<path d="M39.6079 124.025H68.4094V152.726H39.6079V124.025Z" fill="#D0D0D0"/>
</svg>
