<svg width="171" height="245" viewBox="0 0 171 245" fill="none" xmlns="http://www.w3.org/2000/svg">
<path d="M23.4865 142.432C20.9171 142.885 18.3024 143.021 15.5977 143.384L7.34789 119.084V144.427C4.77844 144.699 2.43434 145.061 0 145.424V99H6.85231L16.2287 125.341V99H23.4865V142.432ZM37.6867 116.001C40.4819 116.001 44.7644 115.865 47.3338 115.865V123.119C44.133 123.119 40.3916 123.119 37.6867 123.255V134.045C41.9244 133.773 46.1619 133.41 50.4442 133.274V140.255L30.4738 141.842V99H50.4442V106.254H37.6867V116.001ZM77.2667 106.254H69.7835V139.621C67.3492 139.621 64.9148 139.621 62.571 139.711V106.254H55.0879V99H77.267L77.2667 106.254ZM88.9873 115.502H98.8599V122.756H88.9873V139.213H81.9093V99H102.061V106.254H88.9873V115.502ZM113.781 132.866C117.884 132.956 122.031 133.274 126.043 133.501V140.664C119.597 140.255 113.15 139.848 106.569 139.711V99H113.781V132.866ZM132.129 141.162C134.428 141.299 136.862 141.435 139.206 141.706V99H132.129V141.162ZM170.807 99L161.656 121.079L170.807 145.424C168.102 145.061 165.398 144.563 162.693 144.109L157.509 130.69L152.235 143.021C149.62 142.568 147.095 142.432 144.481 142.069L153.768 120.806L145.382 99H153.136L157.869 111.195L162.918 99H170.807Z" fill="#D0D0D0"/>
</svg>
