<svg width="169" height="245" viewBox="0 0 169 245" fill="none" xmlns="http://www.w3.org/2000/svg">
<path d="M31.4387 144.869L29.1692 138.431L51.1034 139.673L50.1185 149.976L31.4387 144.869ZM36.6944 95L6 110.964L10.747 135.02H17.008L15.9268 117.812L16.8873 117.484L20.652 135.02H27.1564L26.9157 114.059L27.8766 113.731L31.1667 135.02H38.0535L39.6781 109.701L40.6383 109.373L42.3427 135.02H51.4493L54.6547 99.8114L36.6944 95ZM131.488 147.37L131.424 145.362L137.725 145.281L137.783 143.093L131.349 143.005L131.285 140.974L139.761 140.755L139.831 138.355H128.396L128.055 150H140.043L139.958 147.596L131.488 147.37ZM74.4673 143.088L74.3327 145.267L77.5131 145.384L77.4728 147.596L70.8161 147.381L71.1061 140.993L80.2588 140.76L80.1267 138.355H68.3041L67.2439 150H80.7144L80.3653 142.975L74.4673 143.088ZM157.905 143.989L149.168 142.363L149.206 141.103L157.564 140.759L157.354 138.355H146.61L146.06 144.391L154.942 146.091L154.982 147.2L145.74 147.596L145.514 150H158.448L157.905 143.989ZM122.254 150L121.194 138.355H118.15L113.777 143.906L109.405 138.355H106.361L105.302 150H108.877L109.219 142.445L113.777 147.596L118.336 142.445L118.679 150H122.254ZM107.228 95.7116H100.072L99.4204 131.723H108.066L107.228 95.7116ZM129.4 123.89L121.505 124.171L121.242 102.992L129.502 103.267L129.4 123.89ZM136.32 95.7276H114.01L113.142 131.723H137.905L136.32 95.7276ZM163 103.593L162.203 95.7116H140.222L140.408 102.732L147.438 103L148.158 131.724H156.821L154.23 103.258L163 103.593ZM78.0186 103.078L84.9143 102.825L85.7001 109.999L77.741 114.139L78.0186 103.078ZM86.0748 131.723H95.4655L89.3454 115.561L94.2295 112.623L90.8926 95.7116H66.9199L66.1311 103.516L71.4936 103.319L68.9078 131.723H77.3005L77.5273 122.669L83.5746 119.032L86.0748 131.723ZM90.6421 144.752L91.3693 140.942L94.8605 140.768L95.5901 144.591L90.6421 144.752ZM96.6227 150H100.243L97.3792 138.355H88.884L86.02 150H89.6402L90.2008 147.062L96.0778 147.146L96.6227 150Z" fill="#D0D0D0"/>
</svg>
