<svg width="116" height="245" viewBox="0 0 116 245" fill="none" xmlns="http://www.w3.org/2000/svg">
<mask id="mask0_1_730" style="mask-type:luminance" maskUnits="userSpaceOnUse" x="1" y="73" width="115" height="99">
<path d="M116 73H1V172H116V73Z" fill="white"/>
</mask>
<g mask="url(#mask0_1_730)">
<mask id="mask1_1_730" style="mask-type:luminance" maskUnits="userSpaceOnUse" x="1" y="104" width="115" height="37">
<path d="M60.4046 115.832C60.3392 120.983 64.9954 123.858 68.5029 125.567C72.1068 127.321 73.3172 128.445 73.3035 130.013C73.276 132.413 70.4286 133.473 67.7636 133.514C63.1143 133.586 60.4114 132.259 58.2622 131.254L56.5875 139.092C58.7436 140.085 62.7361 140.952 66.8764 140.99C76.5944 140.99 82.9527 136.193 82.9871 128.754C83.0249 119.315 69.93 118.792 70.0194 114.573C70.0504 113.294 71.2712 111.928 73.9465 111.581C75.2705 111.406 78.9259 111.272 83.0697 113.18L84.6962 105.598C82.4679 104.786 79.6034 104.009 76.0373 104.009C66.8901 104.009 60.4562 108.871 60.4046 115.832ZM100.326 104.662C98.5511 104.662 97.0552 105.697 96.3881 107.286L82.5057 140.433H92.2168L94.1495 135.092H106.017L107.138 140.433H115.697L108.228 104.662H100.326ZM101.684 114.325L104.486 127.757H96.8111L101.684 114.325ZM48.6301 104.662L40.9754 140.433H50.2292L57.8805 104.662H48.6301ZM34.9403 104.662L25.3082 129.009L21.4121 108.307C20.9547 105.997 19.1494 104.662 17.1446 104.662H1.39832L1.17822 105.701C4.41069 106.402 8.08332 107.534 10.3082 108.744C11.67 109.484 12.0586 110.13 12.5056 111.887L19.8853 140.433H29.6652L44.6583 104.662H34.9403Z" fill="white"/>
</mask>
<g mask="url(#mask1_1_730)">
<path d="M-10.814 108.425L102.021 66.8711L127.69 136.574L14.8566 178.129" fill="#D0D0D0"/>
</g>
</g>
</svg>
